<?xml version="1.0" standalone="no"?>
<!DOCTYPE svg PUBLIC "-//W3C//DTD SVG 20010904//EN"
 "http://www.w3.org/TR/2001/REC-SVG-20010904/DTD/svg10.dtd">
<svg version="1.0" xmlns="http://www.w3.org/2000/svg"
 width="300.000000pt" height="300.000000pt" viewBox="0 0 300.000000 300.000000"
 preserveAspectRatio="xMidYMid meet">
<metadata>
Created by potrace 1.11, written by Peter Selinger 2001-2013
</metadata>
<g transform="translate(0.000000,300.000000) scale(0.100000,-0.100000)"
fill="#000000" stroke="none">
<path d="M1335 2981 c-2 -5 -22 -12 -42 -16 -21 -3 -58 -18 -82 -32 l-45 -26
-65 17 -66 18 -22 -29 c-13 -15 -30 -49 -40 -75 -13 -37 -23 -49 -44 -53 -36
-8 -62 -39 -61 -73 0 -16 10 -57 22 -93 37 -110 34 -144 -19 -181 -31 -23 -91
-109 -91 -131 1 -27 17 -48 51 -66 19 -9 25 -19 22 -32 -3 -10 -10 -16 -17
-12 -6 3 -8 3 -5 -1 4 -4 -8 -42 -26 -84 -18 -42 -35 -85 -38 -95 -8 -22 -26
-14 -109 50 -31 23 -59 43 -62 43 -19 0 12 -152 55 -269 12 -34 47 -98 76
-138 39 -56 -65 9 -127 79 -14 15 -29 28 -34 28 -12 0 -1 -99 15 -147 19 -53
65 -120 118 -172 l46 -45 -42 24 c-24 13 -43 27 -43 32 0 14 -28 9 -33 -6 -8
-20 36 -102 76 -144 32 -34 123 -107 186 -150 58 -40 313 -179 361 -198 25 -9
50 -20 55 -24 8 -6 42 -17 75 -25 3 0 33 -7 68 -15 34 -8 62 -17 62 -20 0 -3
-19 -25 -41 -50 -23 -25 -61 -76 -86 -113 -29 -46 -54 -73 -76 -82 -31 -13
-187 -124 -236 -168 -27 -25 -112 -151 -133 -197 -7 -16 -17 -30 -23 -30 -14
0 -75 38 -75 47 0 5 -18 28 -41 53 -101 113 -181 273 -274 555 -27 80 -42 135
-50 185 -3 19 -10 54 -15 77 -16 68 -25 218 -24 378 1 140 4 175 21 280 4 22
6 43 5 48 -1 4 5 42 14 85 9 42 18 88 21 101 2 13 21 76 42 140 22 64 41 123
42 131 16 64 141 261 216 338 28 29 0 71 -42 62 -32 -6 -42 -9 -57 -15 -11 -4
-18 -3 -18 5 0 6 4 9 9 6 5 -3 20 11 33 32 14 20 40 53 59 72 19 20 32 34 30
33 -2 -2 -11 7 -19 18 -12 17 -16 18 -23 8 -6 -10 -9 -10 -9 -2 0 9 -7 10 -25
3 -14 -5 -25 -8 -25 -5 0 6 -70 -20 -135 -51 -99 -46 -222 -182 -282 -312
-102 -220 -136 -416 -136 -777 0 -148 7 -301 17 -351 5 -26 14 -81 21 -131 6
-37 10 -60 20 -113 3 -14 8 -41 11 -60 3 -19 9 -48 14 -65 5 -16 14 -57 20
-90 7 -33 15 -64 18 -70 4 -5 7 -14 8 -20 9 -49 82 -228 132 -320 120 -223
332 -493 425 -542 21 -11 151 -13 724 -11 l698 3 9 42 c18 86 -19 150 -118
206 l-40 22 -2 118 c-1 64 -5 124 -8 132 -10 28 2 15 28 -29 14 -24 33 -46 41
-50 9 -3 13 -2 10 4 -3 6 -2 10 2 10 5 0 9 9 10 20 1 13 -2 18 -10 13 -9 -5
-9 -3 -1 8 6 8 10 21 9 29 -1 8 -5 38 -9 66 -11 95 -50 197 -108 282 -16 23
-25 42 -21 43 4 0 15 2 23 4 8 1 31 5 51 9 20 3 42 7 50 10 8 3 32 7 54 10
105 13 247 80 370 173 88 68 204 221 243 323 39 101 57 218 33 212 -8 -2 -10
4 -7 16 10 31 23 152 17 158 -3 2 -13 -5 -23 -18 l-18 -23 7 35 c3 19 7 69 7
112 1 42 4 74 9 71 4 -2 7 4 8 14 0 10 2 26 4 35 2 10 -2 21 -7 25 -6 3 -8 1
-5 -4 4 -6 1 -13 -6 -16 -8 -3 -14 4 -15 17 -2 31 -28 90 -34 80 -3 -5 -9 -27
-13 -49 -5 -22 -9 -42 -10 -45 -1 -3 -5 -20 -9 -38 -9 -37 -21 -35 -31 5 -9
40 -76 207 -85 213 -4 3 -5 28 -3 55 15 158 6 269 -34 400 -24 80 -87 196
-104 191 -3 0 -13 5 -22 13 -15 12 -24 6 -77 -49 -62 -64 -127 -151 -174 -232
-26 -44 -29 -46 -54 -37 -15 6 -28 10 -29 10 -15 -4 -18 12 -18 90 -1 50 -5
93 -10 97 -6 4 -10 14 -10 22 0 31 -30 13 -51 -29 l-21 -44 -30 65 c-36 76
-131 178 -166 178 -13 0 -17 -3 -11 -8 31 -20 34 -152 4 -227 l-11 -29 -12 24
c-17 35 -58 37 -110 7 -47 -28 -102 -30 -118 -6 -5 8 -16 39 -24 69 -39 138
-70 168 -179 175 -36 2 -68 0 -71 -4z m480 -481 c-3 -5 -12 -10 -18 -10 -7 0
-6 4 3 10 19 12 23 12 15 0z m120 -160 c-3 -5 -12 -10 -18 -10 -7 0 -6 4 3 10
19 12 23 12 15 0z m-448 -35 c0 -8 -4 -12 -9 -9 -5 3 -6 10 -3 15 9 13 12 11
12 -6z m-143 -63 c2 -4 -5 -9 -17 -9 -17 -2 -19 0 -7 7 18 12 18 12 24 2z
m-97 -15 c0 -8 -6 -14 -14 -14 -9 0 -10 4 -2 14 6 7 12 13 14 13 1 0 2 -6 2
-13z m-281 -42 c-1 -8 -5 -17 -8 -21 -5 -4 -4 16 1 34 3 9 9 -1 7 -13z m48 -3
c3 -5 -1 -9 -9 -9 -8 0 -15 4 -15 9 0 4 4 8 9 8 6 0 12 -4 15 -8z m147 -9 c13
-16 12 -17 -3 -4 -17 13 -22 21 -14 21 2 0 10 -8 17 -17z m85 2 c-1 -8 -5 -17
-8 -21 -5 -4 -4 16 1 34 3 9 9 -1 7 -13z m-179 -10 c0 -8 -4 -15 -9 -15 -10 0
-11 14 -1 23 9 10 10 9 10 -8z m60 0 c0 -8 -4 -12 -9 -9 -5 3 -6 10 -3 15 9
13 12 11 12 -6z m-86 -32 c13 -16 12 -17 -3 -4 -10 7 -18 15 -18 17 0 8 8 3
21 -13z m-94 -8 c0 -8 -4 -12 -9 -9 -5 3 -6 10 -3 15 9 13 12 11 12 -6z m137
-3 c3 -5 -1 -9 -9 -9 -8 0 -12 4 -9 9 3 4 7 8 9 8 2 0 6 -4 9 -8z"/>
</g>
</svg>
